<svg width="512" height="366" viewBox="0 0 512 366" fill="none" xmlns="http://www.w3.org/2000/svg">
<g id="010" clip-path="url(#clip0)">
<g id="shadow" filter="url(#filter0_d)">
<rect x="54" y="176.4" width="405" height="178.2" fill="black" fill-opacity="0.01"/>
</g>
<g id="money-atm">
<rect id="Mask" width="511.56" height="364.14" rx="14.4" fill="#E0F4F8"/>
<mask id="mask0" mask-type="alpha" maskUnits="userSpaceOnUse" x="0" y="0" width="512" height="365">
<rect id="Mask_2" width="511.56" height="364.14" rx="14.4" fill="white"/>
</mask>
<g mask="url(#mask0)">
<g id="money-atm_2" opacity="0.158924">
<path id="Path" d="M667.513 104.824H766.588C779.219 104.824 789.459 94.584 789.459 81.9529V-9.52944C789.459 -22.1605 779.219 -32.4 766.588 -32.4H286.306C273.675 -32.4 263.435 -22.1605 263.435 -9.52944V81.9529C263.435 94.584 273.675 104.824 286.306 104.824H385.564" stroke="#2C99B5" stroke-width="10.8" stroke-linecap="round" stroke-linejoin="round"/>
<path id="Path_2" fill-rule="evenodd" clip-rule="evenodd" d="M697.976 276.216C698.013 279.272 696.824 282.216 694.676 284.391C692.527 286.565 689.598 287.788 686.541 287.788H366.513C363.456 287.788 360.526 286.565 358.378 284.391C356.229 282.216 355.041 279.272 355.077 276.216C356.312 176.637 373.808 132.268 412.094 36.2118H640.8C679.291 132.268 696.764 176.66 697.976 276.216Z" stroke="#2C99B5" stroke-width="10.8" stroke-linecap="round" stroke-linejoin="round"/>
<path id="Path_3" d="M377.879 333.529H675.197" stroke="#2C99B5" stroke-width="10.8" stroke-linecap="round" stroke-linejoin="round"/>
<path id="Path_4" d="M343.574 36.2118H732.374" stroke="#2C99B5" stroke-width="10.8" stroke-linecap="round" stroke-linejoin="round"/>
</g>
</g>
</g>
<g id="money-atm_3">
<path id="Path_5" d="M95.1391 105.353H107.524C109.102 105.353 110.382 104.073 110.382 102.494V91.0588C110.382 89.4799 109.102 88.2 107.524 88.2H47.4882C45.9093 88.2 44.6294 89.4799 44.6294 91.0588V102.494C44.6294 104.073 45.9093 105.353 47.4882 105.353H59.8955" stroke="#2C99B5" stroke-width="1.8" stroke-linecap="round" stroke-linejoin="round"/>
<path id="Path_6" fill-rule="evenodd" clip-rule="evenodd" d="M98.9474 126.777C98.952 127.159 98.8034 127.527 98.5349 127.799C98.2663 128.071 97.9001 128.223 97.518 128.223H57.5145C57.1324 128.223 56.7662 128.071 56.4976 127.799C56.2291 127.527 56.0805 127.159 56.0851 126.777C56.2394 114.33 58.4264 108.783 63.2121 96.7764H91.8003C96.6117 108.783 98.7959 114.332 98.9474 126.777Z" stroke="#2C99B5" stroke-width="1.8" stroke-linecap="round" stroke-linejoin="round"/>
<path id="Path_7" d="M58.9351 133.941H96.0998" stroke="#2C99B5" stroke-width="1.8" stroke-linecap="round" stroke-linejoin="round"/>
<path id="Path_8" d="M54.647 96.7765H103.247" stroke="#2C99B5" stroke-width="1.8" stroke-linecap="round" stroke-linejoin="round"/>
</g>
<path id="ATM Withdrawals" d="M44.1074 220H50.6738L52.7906 213.131H63.9794L66.0962 220H73.397L63.3746 189.112H54.2594L44.1074 220ZM58.4066 194.814L62.4674 208.163H54.3026L58.4066 194.814ZM80.6293 220H87.6709V194.555H96.0085V189.112H72.2917V194.555H80.6293V220ZM100.358 220H106.622V198.314L115.219 220H117.508L126.062 198.314V220H133.017V189.112H123.945L116.817 208.336L109.603 189.112H100.358V220ZM51.6242 270H58.3634L64.0226 248.659L69.5954 270H76.7234L84.2402 239.112H77.7602L72.749 260.582L67.2626 239.112H61.301L56.0306 260.453L51.1922 239.112H44.1074L51.6242 270ZM87.6503 270H93.8711V247.406H87.6503V270ZM90.7175 244.339C92.7479 244.339 94.3031 242.87 94.3031 240.926C94.3031 238.982 92.7479 237.514 90.7175 237.514C88.7303 237.514 87.1751 238.982 87.1751 240.926C87.1751 242.87 88.7303 244.339 90.7175 244.339ZM107.879 270.432C109.563 270.432 110.816 270.13 111.68 269.827V264.989C110.946 265.291 110.255 265.421 109.304 265.421C107.706 265.421 106.799 264.557 106.799 262.742V251.856H111.551V247.406H106.799V242.525H100.578V247.406H97.6835V251.856H100.578V263.304C100.578 268.013 103.127 270.432 107.879 270.432ZM115.912 270H122.176V256.954C122.176 253.627 124.206 251.986 126.885 251.986C129.649 251.986 130.859 253.454 130.859 256.522V270H137.123V255.614C137.123 249.566 133.969 246.888 129.52 246.888C125.761 246.888 123.299 248.746 122.176 250.992V237.168H115.912V270ZM150.957 270.475C154.284 270.475 157.048 268.531 158.215 266.242V270H164.436V237.168H158.215V250.776C156.962 248.486 154.716 246.888 151.087 246.888C145.428 246.888 141.151 251.251 141.151 258.682V259.027C141.151 266.544 145.471 270.475 150.957 270.475ZM152.815 265.594C149.704 265.594 147.544 263.39 147.544 258.898V258.552C147.544 254.059 149.488 251.683 152.988 251.683C156.4 251.683 158.388 253.973 158.388 258.466V258.811C158.388 263.39 156.098 265.594 152.815 265.594ZM169.996 270H176.26V258.682C176.26 254.362 178.939 252.85 183.561 252.893V247.061C179.889 247.104 177.686 248.702 176.26 251.726V247.406H169.996V270ZM193.342 270.475C196.885 270.475 198.872 269.093 200.168 267.278V270H206.259V255.269C206.259 249.134 202.328 246.888 196.798 246.888C191.269 246.888 187.035 249.264 186.646 254.621H192.565C192.824 252.677 193.947 251.424 196.409 251.424C199.261 251.424 200.081 252.893 200.081 255.571V256.478H197.533C190.621 256.478 185.782 258.466 185.782 263.736C185.782 268.488 189.238 270.475 193.342 270.475ZM195.2 266.112C192.91 266.112 191.917 265.032 191.917 263.39C191.917 260.971 194.033 260.194 197.662 260.194H200.081V262.094C200.081 264.6 197.965 266.112 195.2 266.112ZM216.009 270H222.229L226.377 255.83L230.221 270H236.356L243.484 247.406H237.479L233.202 262.613L229.228 247.406H224.087L219.724 262.613L215.706 247.406H209.14L216.009 270ZM252.362 270.475C255.905 270.475 257.892 269.093 259.188 267.278V270H265.279V255.269C265.279 249.134 261.348 246.888 255.818 246.888C250.289 246.888 246.055 249.264 245.666 254.621H251.585C251.844 252.677 252.967 251.424 255.43 251.424C258.281 251.424 259.102 252.893 259.102 255.571V256.478H256.553C249.641 256.478 244.802 258.466 244.802 263.736C244.802 268.488 248.258 270.475 252.362 270.475ZM254.22 266.112C251.93 266.112 250.937 265.032 250.937 263.39C250.937 260.971 253.054 260.194 256.682 260.194H259.102V262.094C259.102 264.6 256.985 266.112 254.22 266.112ZM270.828 270H277.049V237.168H270.828V270ZM290.971 270.475C296.933 270.475 300.475 267.926 300.475 263.045C300.475 258.206 297.365 256.781 291.706 255.96C288.423 255.485 287.343 254.923 287.343 253.498C287.343 252.115 288.509 251.165 290.539 251.165C292.699 251.165 293.736 252.029 294.082 253.886H299.827C299.266 248.702 295.507 246.888 290.496 246.888C285.874 246.888 281.554 249.221 281.554 253.93C281.554 258.336 283.887 260.064 289.891 260.971C293.131 261.446 294.471 262.094 294.471 263.65C294.471 265.205 293.347 266.112 290.928 266.112C288.207 266.112 287.213 264.946 286.954 262.915H281.122C281.338 267.797 284.88 270.475 290.971 270.475Z" fill="#009BB8"/>
</g>
<defs>
<filter id="filter0_d" x="28" y="164.4" width="457" height="230.2" filterUnits="userSpaceOnUse" color-interpolation-filters="sRGB">
<feFlood flood-opacity="0" result="BackgroundImageFix"/>
<feColorMatrix in="SourceAlpha" type="matrix" values="0 0 0 0 0 0 0 0 0 0 0 0 0 0 0 0 0 0 127 0"/>
<feOffset dy="7"/>
<feGaussianBlur stdDeviation="6.5"/>
<feColorMatrix type="matrix" values="0 0 0 0 0.847059 0 0 0 0 0.866667 0 0 0 0 0.901961 0 0 0 0.5 0"/>
<feBlend mode="normal" in2="BackgroundImageFix" result="effect1_dropShadow"/>
<feBlend mode="normal" in="SourceGraphic" in2="effect1_dropShadow" result="shape"/>
</filter>
<clipPath id="clip0">
<rect width="256" height="183" fill="white" transform="scale(2)"/>
</clipPath>
</defs>
</svg>
