<svg width="512" height="366" viewBox="0 0 512 366" fill="none" xmlns="http://www.w3.org/2000/svg">
<g id="010 copy 2" clip-path="url(#clip0)">
<g id="shadow" filter="url(#filter0_d)">
<rect x="54" y="176.4" width="405" height="178.2" fill="black" fill-opacity="0.01"/>
</g>
<g id="money-atm">
<rect id="Mask" width="511.56" height="364.14" rx="14.4" fill="#E4F5ED"/>
<mask id="mask0" mask-type="alpha" maskUnits="userSpaceOnUse" x="0" y="0" width="512" height="365">
<rect id="Mask_2" width="511.56" height="364.14" rx="14.4" fill="white"/>
</mask>
<g mask="url(#mask0)">
<g id="credit-card" opacity="0.140067">
<rect id="Rectangle" x="329.537" y="-10.8" width="527.28" height="385.32" rx="11.232" stroke="#448A59" stroke-width="11.232" stroke-linecap="round" stroke-linejoin="round"/>
<path id="Path" d="M329.537 110.88H856.817" stroke="#448A59" stroke-width="11.232" stroke-linecap="round" stroke-linejoin="round"/>
<path id="Path_2" d="M410.657 232.56H471.497" stroke="#448A59" stroke-width="11.232" stroke-linecap="round" stroke-linejoin="round"/>
</g>
</g>
</g>
<g id="credit-card_2">
<rect id="Rectangle_2" x="43.4414" y="89.1" width="63.375" height="46.3125" rx="1.35" stroke="#448A59" stroke-width="1.8" stroke-linecap="round" stroke-linejoin="round"/>
<path id="Path_3" d="M43.4414 103.725H106.816" stroke="#448A59" stroke-width="1.8" stroke-linecap="round" stroke-linejoin="round"/>
<path id="Path_4" d="M53.1914 118.35H60.5039" stroke="#448A59" stroke-width="1.8" stroke-linecap="round" stroke-linejoin="round"/>
<path id="Path_5" fill-rule="evenodd" clip-rule="evenodd" d="M86.0977 115.913C84.5239 113.814 81.784 112.958 79.2956 113.788C76.8073 114.617 75.1289 116.946 75.1289 119.569C75.1289 122.192 76.8073 124.52 79.2956 125.35C81.784 126.179 84.5239 125.323 86.0977 123.225C87.6714 125.323 90.4113 126.179 92.8997 125.35C95.388 124.52 97.0664 122.192 97.0664 119.569C97.0664 116.946 95.388 114.617 92.8997 113.788C90.4113 112.958 87.6714 113.814 86.0977 115.913V115.913Z" stroke="#448A59" stroke-width="1.8" stroke-linecap="round" stroke-linejoin="round"/>
</g>
<path id="Instant Access to De" d="M46.6994 220H53.741V189.112H46.6994V220ZM60.0134 220H66.2774V206.954C66.2774 203.627 68.3078 201.986 70.9862 201.986C73.751 201.986 74.9606 203.454 74.9606 206.522V220H81.2246V205.614C81.2246 199.566 78.071 196.888 73.6214 196.888C69.863 196.888 67.4006 198.746 66.2774 200.992V197.406H60.0134V220ZM94.7996 220.475C100.761 220.475 104.304 217.926 104.304 213.045C104.304 208.206 101.193 206.781 95.534 205.96C92.2508 205.485 91.1708 204.923 91.1708 203.498C91.1708 202.115 92.3372 201.165 94.3676 201.165C96.5276 201.165 97.5644 202.029 97.91 203.886H103.656C103.094 198.702 99.3356 196.888 94.3244 196.888C89.702 196.888 85.382 199.221 85.382 203.93C85.382 208.336 87.7148 210.064 93.7196 210.971C96.9596 211.446 98.2988 212.094 98.2988 213.65C98.2988 215.205 97.1756 216.112 94.7564 216.112C92.0348 216.112 91.0412 214.946 90.782 212.915H84.95C85.166 217.797 88.7084 220.475 94.7996 220.475ZM116.527 220.432C118.212 220.432 119.465 220.13 120.329 219.827V214.989C119.594 215.291 118.903 215.421 117.953 215.421C116.354 215.421 115.447 214.557 115.447 212.742V201.856H120.199V197.406H115.447V192.525H109.226V197.406H106.332V201.856H109.226V213.304C109.226 218.013 111.775 220.432 116.527 220.432ZM130.862 220.475C134.405 220.475 136.392 219.093 137.688 217.278V220H143.779V205.269C143.779 199.134 139.848 196.888 134.318 196.888C128.789 196.888 124.555 199.264 124.166 204.621H130.085C130.344 202.677 131.467 201.424 133.93 201.424C136.781 201.424 137.602 202.893 137.602 205.571V206.478H135.053C128.141 206.478 123.302 208.466 123.302 213.736C123.302 218.488 126.758 220.475 130.862 220.475ZM132.72 216.112C130.43 216.112 129.437 215.032 129.437 213.39C129.437 210.971 131.554 210.194 135.182 210.194H137.602V212.094C137.602 214.6 135.485 216.112 132.72 216.112ZM149.156 220H155.42V206.954C155.42 203.627 157.45 201.986 160.128 201.986C162.893 201.986 164.103 203.454 164.103 206.522V220H170.367V205.614C170.367 199.566 167.213 196.888 162.764 196.888C159.005 196.888 156.543 198.746 155.42 200.992V197.406H149.156V220ZM183.985 220.432C185.67 220.432 186.923 220.13 187.787 219.827V214.989C187.052 215.291 186.361 215.421 185.411 215.421C183.812 215.421 182.905 214.557 182.905 212.742V201.856H187.657V197.406H182.905V192.525H176.684V197.406H173.79V201.856H176.684V213.304C176.684 218.013 179.233 220.432 183.985 220.432ZM199.737 220H206.303L208.42 213.131H219.609L221.726 220H229.027L219.004 189.112H209.889L199.737 220ZM214.036 194.814L218.097 208.163H209.932L214.036 194.814ZM242.292 220.475C248.859 220.475 252.747 216.76 253.092 211.403H247.433C247.131 214.298 245.1 215.766 242.595 215.766C239.096 215.766 237.065 213.434 237.065 208.898V208.552C237.065 204.232 239.225 201.813 242.465 201.813C245.014 201.813 246.612 203.022 247.044 205.658H252.963C252.401 199.178 247.563 196.888 242.336 196.888C235.899 196.888 230.672 201.338 230.672 208.638V208.984C230.672 216.371 235.683 220.475 242.292 220.475ZM267.267 220.475C273.834 220.475 277.722 216.76 278.067 211.403H272.408C272.106 214.298 270.075 215.766 267.57 215.766C264.071 215.766 262.04 213.434 262.04 208.898V208.552C262.04 204.232 264.2 201.813 267.44 201.813C269.989 201.813 271.587 203.022 272.019 205.658H277.938C277.376 199.178 272.538 196.888 267.311 196.888C260.874 196.888 255.647 201.338 255.647 208.638V208.984C255.647 216.371 260.658 220.475 267.267 220.475ZM292.415 220.475C298.593 220.475 302.481 217.754 303.215 212.872H297.297C296.908 214.773 295.482 216.026 292.588 216.026C289.175 216.026 287.145 213.866 286.972 210.107H303.258V208.379C303.258 200.301 298.074 196.888 292.242 196.888C285.676 196.888 280.622 201.51 280.622 208.638V208.984C280.622 216.198 285.59 220.475 292.415 220.475ZM287.058 206.262C287.534 203.066 289.434 201.208 292.242 201.208C295.223 201.208 296.951 202.85 297.167 206.262H287.058ZM315.778 220.475C321.739 220.475 325.282 217.926 325.282 213.045C325.282 208.206 322.171 206.781 316.512 205.96C313.229 205.485 312.149 204.923 312.149 203.498C312.149 202.115 313.315 201.165 315.346 201.165C317.506 201.165 318.543 202.029 318.888 203.886H324.634C324.072 198.702 320.314 196.888 315.303 196.888C310.68 196.888 306.36 199.221 306.36 203.93C306.36 208.336 308.693 210.064 314.698 210.971C317.938 211.446 319.277 212.094 319.277 213.65C319.277 215.205 318.154 216.112 315.735 216.112C313.013 216.112 312.019 214.946 311.76 212.915H305.928C306.144 217.797 309.687 220.475 315.778 220.475ZM337.462 220.475C343.424 220.475 346.966 217.926 346.966 213.045C346.966 208.206 343.856 206.781 338.196 205.96C334.913 205.485 333.833 204.923 333.833 203.498C333.833 202.115 335 201.165 337.03 201.165C339.19 201.165 340.227 202.029 340.572 203.886H346.318C345.756 198.702 341.998 196.888 336.987 196.888C332.364 196.888 328.044 199.221 328.044 203.93C328.044 208.336 330.377 210.064 336.382 210.971C339.622 211.446 340.961 212.094 340.961 213.65C340.961 215.205 339.838 216.112 337.419 216.112C334.697 216.112 333.704 214.946 333.444 212.915H327.612C327.828 217.797 331.371 220.475 337.462 220.475ZM54.2162 270.432C55.901 270.432 57.1538 270.13 58.0178 269.827V264.989C57.2834 265.291 56.5922 265.421 55.6418 265.421C54.0434 265.421 53.1362 264.557 53.1362 262.742V251.856H57.8882V247.406H53.1362V242.525H46.9154V247.406H44.021V251.856H46.9154V263.304C46.9154 268.013 49.4642 270.432 54.2162 270.432ZM72.7902 265.723C69.2478 265.723 67.2606 263.131 67.2606 258.811V258.466C67.2606 254.146 69.3342 251.64 72.7902 251.64C76.2894 251.64 78.3198 254.232 78.3198 258.552V258.854C78.3198 263.131 76.2894 265.723 72.7902 265.723ZM72.747 270.475C79.5294 270.475 84.6702 265.939 84.6702 258.811V258.466C84.6702 251.424 79.5726 246.888 72.7902 246.888C66.0078 246.888 60.867 251.51 60.867 258.595V258.941C60.867 265.982 66.0078 270.475 72.747 270.475ZM106.006 264.557V244.555H108.771C115.294 244.555 118.016 247.968 118.016 254.318V254.664C118.016 261.058 115.078 264.557 108.857 264.557H106.006ZM99.0079 270H109.073C119.917 270 125.317 263.822 125.317 254.578V254.232C125.317 244.987 119.96 239.112 109.117 239.112H99.0079V270ZM140.203 270.475C146.38 270.475 150.268 267.754 151.003 262.872H145.084C144.696 264.773 143.27 266.026 140.376 266.026C136.963 266.026 134.932 263.866 134.76 260.107H151.046V258.379C151.046 250.301 145.862 246.888 140.03 246.888C133.464 246.888 128.409 251.51 128.409 258.638V258.984C128.409 266.198 133.377 270.475 140.203 270.475ZM134.846 256.262C135.321 253.066 137.222 251.208 140.03 251.208C143.011 251.208 144.739 252.85 144.955 256.262H134.846ZM168.625 270.475C174.241 270.475 178.474 266.285 178.474 258.811V258.466C178.474 250.992 174.154 246.888 168.625 246.888C165.298 246.888 162.663 248.789 161.41 250.949V237.168H155.146V270H161.41V266.414C162.577 268.747 165.125 270.475 168.625 270.475ZM166.767 265.594C163.354 265.594 161.194 263.39 161.194 258.854V258.509C161.194 253.973 163.441 251.683 166.724 251.683C169.877 251.683 172.124 253.93 172.124 258.509V258.854C172.124 263.261 170.223 265.594 166.767 265.594ZM182.825 270H189.046V247.406H182.825V270ZM185.892 244.339C187.923 244.339 189.478 242.87 189.478 240.926C189.478 238.982 187.923 237.514 185.892 237.514C183.905 237.514 182.35 238.982 182.35 240.926C182.35 242.87 183.905 244.339 185.892 244.339ZM203.054 270.432C204.739 270.432 205.991 270.13 206.855 269.827V264.989C206.121 265.291 205.43 265.421 204.479 265.421C202.881 265.421 201.974 264.557 201.974 262.742V251.856H206.726V247.406H201.974V242.525H195.753V247.406H192.859V251.856H195.753V263.304C195.753 268.013 198.302 270.432 203.054 270.432ZM235.135 270.475C242.739 270.475 248.225 266.544 249.003 258.898H242.134C241.572 262.872 238.894 264.816 235.049 264.816C229.951 264.816 227.014 261.101 227.014 254.707V254.362C227.014 247.968 230.124 244.166 235.006 244.166C238.894 244.166 240.967 246.154 241.486 249.869H248.657C247.923 242.266 242.393 238.637 234.963 238.637C226.193 238.637 219.627 245.03 219.627 254.405V254.75C219.627 264.254 225.027 270.475 235.135 270.475ZM259.281 270.475C262.824 270.475 264.811 269.093 266.107 267.278V270H272.198V255.269C272.198 249.134 268.267 246.888 262.737 246.888C257.208 246.888 252.974 249.264 252.585 254.621H258.504C258.763 252.677 259.886 251.424 262.348 251.424C265.2 251.424 266.02 252.893 266.02 255.571V256.478H263.472C256.56 256.478 251.721 258.466 251.721 263.736C251.721 268.488 255.177 270.475 259.281 270.475ZM261.139 266.112C258.849 266.112 257.856 265.032 257.856 263.39C257.856 260.971 259.972 260.194 263.601 260.194H266.02V262.094C266.02 264.6 263.904 266.112 261.139 266.112ZM277.574 270H283.838V258.682C283.838 254.362 286.517 252.85 291.139 252.893V247.061C287.467 247.104 285.264 248.702 283.838 251.726V247.406H277.574V270ZM303.296 270.475C306.623 270.475 309.387 268.531 310.554 266.242V270H316.775V237.168H310.554V250.776C309.301 248.486 307.055 246.888 303.426 246.888C297.767 246.888 293.49 251.251 293.49 258.682V259.027C293.49 266.544 297.81 270.475 303.296 270.475ZM305.154 265.594C302.043 265.594 299.883 263.39 299.883 258.898V258.552C299.883 254.059 301.827 251.683 305.327 251.683C308.739 251.683 310.727 253.973 310.727 258.466V258.811C310.727 263.39 308.437 265.594 305.154 265.594ZM330.543 270.475C336.505 270.475 340.047 267.926 340.047 263.045C340.047 258.206 336.937 256.781 331.278 255.96C327.995 255.485 326.915 254.923 326.915 253.498C326.915 252.115 328.081 251.165 330.111 251.165C332.271 251.165 333.308 252.029 333.654 253.886H339.399C338.838 248.702 335.079 246.888 330.068 246.888C325.446 246.888 321.126 249.221 321.126 253.93C321.126 258.336 323.459 260.064 329.463 260.971C332.703 261.446 334.043 262.094 334.043 263.65C334.043 265.205 332.919 266.112 330.5 266.112C327.779 266.112 326.785 264.946 326.526 262.915H320.694C320.91 267.797 324.452 270.475 330.543 270.475Z" fill="#1F8D54"/>
</g>
<defs>
<filter id="filter0_d" x="28" y="164.4" width="457" height="230.2" filterUnits="userSpaceOnUse" color-interpolation-filters="sRGB">
<feFlood flood-opacity="0" result="BackgroundImageFix"/>
<feColorMatrix in="SourceAlpha" type="matrix" values="0 0 0 0 0 0 0 0 0 0 0 0 0 0 0 0 0 0 127 0"/>
<feOffset dy="7"/>
<feGaussianBlur stdDeviation="6.5"/>
<feColorMatrix type="matrix" values="0 0 0 0 0.847059 0 0 0 0 0.866667 0 0 0 0 0.901961 0 0 0 0.5 0"/>
<feBlend mode="normal" in2="BackgroundImageFix" result="effect1_dropShadow"/>
<feBlend mode="normal" in="SourceGraphic" in2="effect1_dropShadow" result="shape"/>
</filter>
<clipPath id="clip0">
<rect width="256" height="183" fill="white" transform="scale(2)"/>
</clipPath>
</defs>
</svg>
